<svg id="Capa_1" data-name="Capa 1" xmlns="http://www.w3.org/2000/svg" viewBox="0 0 19.61 19.97"><defs><style>.cls-1,.cls-3,.cls-4,.cls-5{fill:none;}.cls-1,.cls-4,.cls-5{stroke:#d7d7d7;}.cls-1,.cls-2,.cls-3,.cls-4,.cls-5{stroke-miterlimit:10;}.cls-1{stroke-width:1.12px;}.cls-2{fill:#fff;stroke-width:0.57px;}.cls-2,.cls-3{stroke:#000;}.cls-3{stroke-width:0.07px;}.cls-4{stroke-width:0.11px;}.cls-5{stroke-width:0.06px;}</style></defs><title>darkmode-glearning</title><rect class="cls-1" x="0.56" y="0.56" width="13.66" height="18.84" rx="0.42" ry="0.42"/><path class="cls-2" d="M12.53,13.9l0,1.75L14,14.89l5.4-7.77s-.35-1.45-1.43-1Z" transform="translate(-0.07 -0.02)"/><polyline class="cls-3" points="13.89 14.88 13.87 14.47 13.49 14.59 13.47 14.2 13.09 14.31 13.07 13.92 12.7 14.05 12.64 13.62"/><line class="cls-4" x1="4.26" y1="2.84" x2="10.1" y2="2.84"/><line class="cls-5" x1="2.03" y1="4.93" x2="13" y2="4.93"/><line class="cls-5" x1="2.03" y1="6.85" x2="13" y2="6.85"/><line class="cls-5" x1="2.03" y1="8.77" x2="13" y2="8.77"/><line class="cls-5" x1="2.03" y1="10.7" x2="13" y2="10.7"/><line class="cls-5" x1="2.03" y1="12.62" x2="13" y2="12.62"/></svg>