<svg id="Capa_1" data-name="Capa 1" xmlns="http://www.w3.org/2000/svg" viewBox="0 0 19.34 19.28"><defs><style>.cls-1{fill:none;stroke:#d7d7d7;stroke-miterlimit:10;stroke-width:1.11px;}</style></defs><title>darkmode-settings</title><polygon class="cls-1" points="8.04 0.55 11.44 0.55 11.8 2.62 13.13 3.28 14.83 2.05 17.33 4.51 16.2 6.14 16.69 7.58 18.79 7.94 18.79 11.44 16.69 11.77 16.16 13.1 17.33 14.86 14.93 17.29 13.23 16.13 11.8 16.73 11.44 18.72 7.81 18.72 7.58 16.76 6.21 16.13 4.38 17.39 1.99 14.9 3.18 13.23 2.58 11.87 0.55 11.44 0.55 7.91 2.65 7.58 3.22 6.11 1.95 4.38 4.48 1.89 6.14 3.25 7.58 2.68 8.04 0.55"/><circle class="cls-1" cx="9.67" cy="9.49" r="4.07"/></svg>