<svg id="Capa_1" data-name="Capa 1" xmlns="http://www.w3.org/2000/svg" viewBox="0 0 18.83 20"><defs><style>.cls-1{fill:#d7d7d7;}.cls-2{fill:#9e9e9e;}</style></defs><title>darkmode-myepnshps</title><path class="cls-1" d="M17.85,18.9A21.94,21.94,0,0,1,11.31,20c-3.58,0-6.16-.9-8-2.65A9.48,9.48,0,0,1,.59,10.23C.62,3.72,5.35,0,11.78,0a13.47,13.47,0,0,1,5.44,1l-.93,3.55a10.85,10.85,0,0,0-4.56-.84C8,3.66,5.24,5.76,5.24,10c0,4,2.53,6.43,6.16,6.43A9.39,9.39,0,0,0,14,16.15l0-2H9.34V10.38h8.51Z" transform="translate(-0.59)"/><polygon class="cls-2" points="8.76 10.38 11.4 9.65 18.83 9.65 18.83 17.83 17.27 18.9 17.27 10.39 8.76 10.38"/></svg>