<svg id="Capa_1" data-name="Capa 1" xmlns="http://www.w3.org/2000/svg" viewBox="0 0 19.85 17.14"><defs><style>.cls-1,.cls-2,.cls-3{stroke:#d7d7d7;stroke-miterlimit:10;}.cls-1{stroke-width:0.56px;}.cls-2{stroke-width:1.13px;}.cls-3{stroke-width:1.51px;}</style></defs><title>darkmode-wallet</title><path class="cls-1" d="M7.36,4.24,9,1.8a.61.61,0,0,1,1-.18c.67.44,3.77,2.62,3.77,2.62Z" transform="translate(-0.16 -1.12)"/><path class="cls-1" d="M9.14,4.24l2.38-2.67a.72.72,0,0,1,.93,0c.47.39,2.73,2.67,2.73,2.67Z" transform="translate(-0.16 -1.12)"/><path class="cls-1" d="M11,4.24l3.08-1.63s.38-.27.59.07a15.67,15.67,0,0,1,.66,1.52Z" transform="translate(-0.16 -1.12)"/><path class="cls-2" d="M1.42,4.24H16.89s.94-.07,1,1.11,0,11.21,0,11.21.31,1.46-1.42,1.08c-2.36,0-14.54.06-14.54.06A1.12,1.12,0,0,1,.72,16.45V5.63A1.53,1.53,0,0,1,1.42,4.24Z" transform="translate(-0.16 -1.12)"/><line class="cls-3" x1="18.44" y1="7.76" x2="18.53" y2="11.45"/><path class="cls-2" d="M17.89,9.76l-2,0s-1.08.43-1.08,1.26.46,1.46.85,1.5,3,0,3,0,.69-.39.73-1,0-1.78,0-1.78-.15-.95-1-.95h-.54Z" transform="translate(-0.16 -1.12)"/></svg>