<svg id="Capa_1" data-name="Capa 1" xmlns="http://www.w3.org/2000/svg" viewBox="0 0 129.57 18.99"><defs><style>.cls-1{fill:#033a99;}.cls-2{fill:#022a63;}</style></defs><title>logoGrandbuckWoutBackground</title><path class="cls-1" d="M16.07,40.92a19.87,19.87,0,0,1-5.93,1c-3.24,0-5.58-.82-7.22-2.4a8.59,8.59,0,0,1-2.5-6.45c0-5.9,4.32-9.27,10.14-9.27a12.2,12.2,0,0,1,4.92.87l-.84,3.21a9.83,9.83,0,0,0-4.13-.76c-3.34,0-5.87,1.9-5.87,5.74,0,3.66,2.29,5.82,5.58,5.82a8.5,8.5,0,0,0,2.39-.25l0-1.79H8.36V33.21h7.71Z" transform="translate(-0.43 -23.04)"/><path class="cls-1" d="M19.16,33.1c0-1.9-.05-3.13-.11-4.24h3.45l.13,2.37h.11a3.78,3.78,0,0,1,3.48-2.66,4.13,4.13,0,0,1,.84.05v3.77A5.75,5.75,0,0,0,26,32.28a2.57,2.57,0,0,0-2.74,2,4.65,4.65,0,0,0-.08.9v6.53h-4Z" transform="translate(-0.43 -23.04)"/><path class="cls-1" d="M36.2,41.74,36,40.45h-.08A4.64,4.64,0,0,1,32.2,42,4,4,0,0,1,28,38.08c0-3.35,3-5,7.56-4.92V33c0-.69-.37-1.66-2.34-1.66a7.25,7.25,0,0,0-3.56,1L29,29.7a10.63,10.63,0,0,1,5-1.13c4.29,0,5.66,2.53,5.66,5.56V38.6a19.92,19.92,0,0,0,.18,3.13Zm-.47-6.08c-2.11,0-3.74.47-3.74,2a1.44,1.44,0,0,0,1.58,1.53,2.19,2.19,0,0,0,2.08-1.48,2.87,2.87,0,0,0,.08-.68Z" transform="translate(-0.43 -23.04)"/><path class="cls-1" d="M42.79,33c0-1.61-.05-3-.11-4.11h3.48l.18,1.76h.08a4.71,4.71,0,0,1,4-2.05C53,28.57,55,30.31,55,34.1v7.64H51V34.6c0-1.66-.58-2.79-2-2.79a2.14,2.14,0,0,0-2,1.5,2.76,2.76,0,0,0-.16,1v7.43h-4Z" transform="translate(-0.43 -23.04)"/><path class="cls-1" d="M70.72,23V37.89c0,1.45.05,3,.11,3.84H67.27l-.18-1.9H67A4.5,4.5,0,0,1,63,42c-3.05,0-5.5-2.61-5.5-6.61,0-4.35,2.69-6.85,5.77-6.85A3.92,3.92,0,0,1,66.66,30h.05V23Zm-4,11.27a6.36,6.36,0,0,0-.05-.71,2.4,2.4,0,0,0-2.34-2c-1.82,0-2.76,1.63-2.76,3.66,0,2.19,1.08,3.56,2.74,3.56a2.34,2.34,0,0,0,2.32-1.92,3.39,3.39,0,0,0,.11-.92Z" transform="translate(-0.43 -23.04)"/><path class="cls-1" d="M73.83,41.74c.05-.84.11-2.4.11-3.84V23h4v7.35H78a4.53,4.53,0,0,1,3.9-1.82c3.08,0,5.35,2.55,5.32,6.5,0,4.63-2.95,7-5.9,7a4.28,4.28,0,0,1-3.87-2.08h-.05l-.16,1.79Zm4.11-5.48A2.88,2.88,0,0,0,78,37a2.42,2.42,0,0,0,2.34,1.9c1.71,0,2.76-1.32,2.76-3.63,0-2-.9-3.58-2.76-3.58a2.48,2.48,0,0,0-2.34,2,3.27,3.27,0,0,0-.08.74Z" transform="translate(-0.43 -23.04)"/><path class="cls-1" d="M101.84,37.6c0,1.69.05,3.05.11,4.13H98.46l-.18-1.82H98.2a4.59,4.59,0,0,1-4,2.11c-2.61,0-4.53-1.63-4.53-5.61V28.86h4v6.93c0,1.87.61,3,2,3a2.15,2.15,0,0,0,2-1.4,2.24,2.24,0,0,0,.13-.87V28.86h4Z" transform="translate(-0.43 -23.04)"/><path class="cls-1" d="M114.72,41.42a9.76,9.76,0,0,1-3.58.58c-4.16,0-6.82-2.53-6.82-6.58,0-3.77,2.58-6.85,7.37-6.85a9.3,9.3,0,0,1,3.05.5l-.63,3a5.47,5.47,0,0,0-2.24-.39,3.33,3.33,0,0,0-3.45,3.61A3.35,3.35,0,0,0,112,38.87a6.18,6.18,0,0,0,2.29-.4Z" transform="translate(-0.43 -23.04)"/><path class="cls-1" d="M120.94,34.29H121c.29-.53.61-1.05.92-1.55l2.61-3.87h4.82l-4.61,5.21L130,41.74h-4.92L122,36.45l-1,1.26v4h-4V23h4Z" transform="translate(-0.43 -23.04)"/><polygon class="cls-2" points="7.82 10.16 10.22 9.49 16.94 9.49 16.94 16.9 15.53 17.87 15.53 10.17 7.82 10.16"/></svg>