<svg id="Capa_1" data-name="Capa 1" xmlns="http://www.w3.org/2000/svg" viewBox="0 0 193.69 179.43"><defs><style>.cls-1{fill:#031c2b;stroke:#033a99;stroke-miterlimit:10;stroke-width:13.25px;}.cls-2{font-size:30.57px;fill:#f05d0c;font-family:MyriadPro-Bold, Myriad Pro;font-weight:700;}.cls-3{letter-spacing:-0.03em;}.cls-4{letter-spacing:0.01em;}.cls-5{letter-spacing:-0.02em;}.cls-6{letter-spacing:0.01em;}.cls-7{fill:#8d8d8d;}.cls-8{fill:#333;}.cls-9{fill:#151515;}.cls-10{fill:#393939;}</style></defs><title>blockchainTech</title><rect class="cls-1" x="6.63" y="6.63" width="180.43" height="166.18" rx="1" ry="1"/><text class="cls-2" transform="translate(24.99 40.91)"><tspan class="cls-3">C</tspan><tspan x="17.27" y="0">ONT</tspan><tspan class="cls-4" x="77.02" y="0">R</tspan><tspan class="cls-5" x="95.42" y="0">A</tspan><tspan class="cls-6" x="114.71" y="0">C</tspan><tspan x="133.32" y="0">T</tspan></text><polygon class="cls-7" points="62.89 111.59 94.93 156.78 94.93 130.53 62.89 111.59"/><polygon class="cls-8" points="126.78 111.74 94.93 156.78 94.93 130.53 126.78 111.74"/><polygon class="cls-9" points="94.93 124.32 94.93 90.92 126.78 105.36 94.93 124.32"/><polygon class="cls-10" points="62.89 105.39 94.93 124.32 94.93 90.92 62.89 105.39"/><polygon class="cls-7" points="94.93 52.11 62.89 105.39 94.93 90.92 94.93 52.11"/><polygon class="cls-8" points="126.78 105.36 94.93 52.11 94.93 90.92 126.78 105.36"/></svg>