<svg id="Capa_1" data-name="Capa 1" xmlns="http://www.w3.org/2000/svg" viewBox="0 0 36.71 39"><defs><style>.cls-1{fill:#033a99;}.cls-2{fill:#022a63;}</style></defs><title>logoG</title><path class="cls-1" d="M35.81,37.35A42.78,42.78,0,0,1,23.06,39.5c-7,0-12-1.76-15.53-5.16S2.09,26.07,2.14,20.45C2.2,7.76,11.44.5,24,.5a26.26,26.26,0,0,1,10.6,1.87L32.75,9.29a21.16,21.16,0,0,0-8.9-1.64c-7.2,0-12.64,4.08-12.64,12.36,0,7.88,4.93,12.53,12,12.53A18.3,18.3,0,0,0,28.38,32l-.05-3.85-9.12,0,0-7.37,16.59,0Z" transform="translate(-2.14 -0.5)"/><polygon class="cls-2" points="17.08 20.25 22.24 18.81 36.71 18.81 36.71 34.76 33.67 36.85 33.67 20.26 17.08 20.25"/></svg>