<svg id="Capa_1" data-name="Capa 1" xmlns="http://www.w3.org/2000/svg" viewBox="0 0 142.98 197.7"><defs><style>.cls-1,.cls-2{fill:#031c2b;}.cls-2,.cls-5,.cls-6{stroke:#033a99;}.cls-2,.cls-4,.cls-5,.cls-6{stroke-miterlimit:10;}.cls-2,.cls-4,.cls-5{stroke-width:9.32px;}.cls-3,.cls-4,.cls-5,.cls-6{fill:none;}.cls-3{stroke:#f05d0c;stroke-linecap:round;stroke-linejoin:round;}.cls-3,.cls-6{stroke-width:4.66px;}.cls-4{stroke:#031c2b;}</style></defs><title>security</title><polygon class="cls-1" points="21.79 81.57 21.39 42.11 43.35 11.74 78.49 4.76 101.49 14.26 114.12 26.14 122.43 42.11 122.43 83.44 21.79 81.57"/><path class="cls-2" d="M32.17,181.58V95.4S30.71,84.91,46.72,84.91H150.65s14.85,1.47,15.14,11.36v85.3s-2,12.81-14,12.81H42.94S32.17,194.09,32.17,181.58Z" transform="translate(-27.47 -1.34)"/><path class="cls-3" d="M86.61,158.29h25.33l-7.57-17.47s5.82-3.49,6.11-9.9-5.66-12.23-11.21-11.57c-3.93,0-10.53,3.95-10.63,10.41-.08,5.25,2.91,9.89,6.11,11.35Z" transform="translate(-27.47 -1.34)"/><line class="cls-4" x1="24.01" y1="83.57" x2="42.35" y2="83.57"/><line class="cls-4" x1="100.49" y1="83.57" x2="119.03" y2="83.57"/><path class="cls-5" d="M46.72,84.91V48.4s7.46-20.9,16.89-28.79S86.75,5.58,99,6s28.87,7.45,32.38,11,17.1,16,19.73,29.37V82.74" transform="translate(-27.47 -1.34)"/><path class="cls-6" d="M72.16,80.33s-.39-26.81,0-28.93c1.1-5.94,8.77-20.39,24.33-19.95s25.65,7.45,29.15,19.73c.44,7.23,0,29.15,0,29.15" transform="translate(-27.47 -1.34)"/></svg>