<svg id="Capa_1" data-name="Capa 1" xmlns="http://www.w3.org/2000/svg" viewBox="0 0 17.82 14.52"><defs><style>.cls-1{fill:#fff;}</style></defs><title>twitter-logo</title><path class="cls-1" d="M1.42,2.76A10.4,10.4,0,0,0,9,6.59c-.2-1.47.12-4.14,3-4.47a3.65,3.65,0,0,1,3.19,1.14,7.39,7.39,0,0,0,2.33-.92,3.78,3.78,0,0,1-1.52,2,6.2,6.2,0,0,0,2-.54,5.91,5.91,0,0,1-1.8,1.88c.08,1.14,0,9.06-9.17,10.9A10.92,10.92,0,0,1,.18,14.94a7.12,7.12,0,0,0,5.36-1.5,3.86,3.86,0,0,1-3.39-2.55,4.09,4.09,0,0,0,1.63-.06A3.71,3.71,0,0,1,.88,7.2a3.6,3.6,0,0,0,1.67.44A3.69,3.69,0,0,1,1.42,2.76Z" transform="translate(-0.18 -2.1)"/></svg>