<svg id="Capa_1" data-name="Capa 1" xmlns="http://www.w3.org/2000/svg" viewBox="0 0 190.14 164.26"><defs><style>.cls-1{fill:#0595a6;}.cls-1,.cls-2,.cls-3{stroke:#f05d0c;stroke-width:5.32px;}.cls-1,.cls-2,.cls-3,.cls-4,.cls-5,.cls-6{stroke-miterlimit:10;}.cls-2{fill:#0571b0;}.cls-3{fill:#016298;}.cls-4{fill:#044eb7;}.cls-4,.cls-5,.cls-6{stroke:#033a99;}.cls-4,.cls-6{stroke-width:10.82px;}.cls-5,.cls-6{fill:none;}.cls-5{stroke-width:14.42px;}</style></defs><title>wallet</title><path class="cls-1" d="M73.33,48.21,88.6,24.86s2.88-6,9.26-1.75S134,48.21,134,48.21Z" transform="translate(-4.27 -18.28)"/><path class="cls-2" d="M90.35,48.21l22.77-25.6s4.38-3.75,8.88,0,26.15,25.6,26.15,25.6Z" transform="translate(-4.27 -18.28)"/><path class="cls-3" d="M108.5,48.21,138,32.56s3.63-2.63,5.63.63S150,47.78,150,47.78Z" transform="translate(-4.27 -18.28)"/><path class="cls-4" d="M16.37,48.21H164.61s9-.66,9.31,10.64,0,107.36,0,107.36,2.58,11.29-13.63,10.3c-22.6.33-139.27.61-139.27.61s-11.3.72-11.3-11.91V61.51A14.62,14.62,0,0,1,16.37,48.21Z" transform="translate(-4.27 -18.28)"/><line class="cls-5" x1="176.65" y1="74.34" x2="177.57" y2="109.69"/><path class="cls-6" d="M174.13,101.09l-19.19.39s-10.32,4.16-10.32,12.11,4.42,14,8.11,14.38,29.11,0,29.11,0,6.63-3.78,7-9.46,0-17,0-17-1.47-9.08-9.58-9.08h-5.13Z" transform="translate(-4.27 -18.28)"/></svg>