<svg id="Capa_1" data-name="Capa 1" xmlns="http://www.w3.org/2000/svg" viewBox="0 0 306.81 257.23"><defs><style>.cls-1{fill:#fff;}.cls-2{fill:#0517b0;}.cls-3{fill:#ffb980;}.cls-4{fill:#d6a473;}.cls-5{fill:#fec389;}.cls-6{fill:#5f361a;}.cls-7{fill:#0571b0;}.cls-8{fill:#ffa76c;}.cls-9{fill:#d39c6a;}.cls-10{fill:#f9b073;}.cls-11{fill:#331806;}.cls-12{fill:#033a99;}.cls-13,.cls-15,.cls-16{fill:none;stroke-miterlimit:10;}.cls-13{stroke:#0595a6;stroke-width:0.24px;}.cls-14{fill:#010101;}.cls-15,.cls-16{stroke:#211915;}.cls-15{stroke-width:2.13px;}.cls-16{stroke-width:2.35px;}</style></defs><title>entrepreneursDraw</title><path class="cls-1" d="M54,232.22l2.27-3,.54.29s-2.2,3,1.71,5.93c3.87,3.87,4.12,5.88,12.44,9.9,2.6,1.27,2.45.88,2.45.88a44.71,44.71,0,0,0,10.29-10.68c.54-2.6-.39-3.58-.39-3.58l1.16.52s12.41,40.36,9,53.83h-39Z" transform="translate(-7.19 -30.36)"/><path class="cls-2" d="M73.41,246.85l-5.23,3.71s1.41,3.35,3,4.12c-.14,2-5.21,17.73-6.39,19.2-.59,2.94-.44,10.41-.59,12.48h18s.07-12.63-.66-14.32S75.14,255,75.14,255l3.67-5.14Z" transform="translate(-7.19 -30.36)"/><path d="M7.19,286.36c0-6.13,7.25-34.65,7.25-34.65a4.52,4.52,0,0,1,2.94-1.86c2.65-.69,31.16-10.58,31.16-10.58L54,231.52s-.2-.2,0,1.27,2.06,50.78.39,53.56Z" transform="translate(-7.19 -30.36)"/><path d="M93.42,286.36S90.48,245.73,84.21,232c0,0,4.09,3.21,4.61,5,2.65,1,32.48,12.42,32.48,12.42s6.42,33,4.85,36.88Z" transform="translate(-7.19 -30.36)"/><path class="cls-3" d="M84.49,221.67c-.38,2.53-1.22,7.78-1.3,10.65.15.4,1,5.66-5,9.8-4.44,4.73-4.84,4.38-4.84,4.38s-8.12-2-13.23-8.38-5.37-6.87-3.18-8.67C58.87,229.78,84.49,221.67,84.49,221.67Z" transform="translate(-7.19 -30.36)"/><path class="cls-4" d="M61.62,232.87c3.53,2.72,10.92,10.4,11.58,10.55,1.62-2.17,5.69-11.39,6.5-12.09-3.86-.18-18.08.81-18.08.81Z" transform="translate(-7.19 -30.36)"/><path class="cls-5" d="M56.77,229.56l.37-.5s-5.29-4.79-6.18-14.93c-3.16-1.4-4.12-1.18-5.51-6.54-.81-6.47-.29-8.75.73-9.11,1.84,1.25,4.12,6.1,4.26,9.7.81,1.47,1.1.59,1.1.59v-11.1s2-5.73,5.59-7.5c2.35-1,10.65-.88,10.65-.88s3.38-3,10.58-2.06S87,199.35,87,204.5s.34,15.07-2.77,17.42C82.57,226.25,78.57,234.34,74,236s-14.5-4.08-16.68-6.76Z" transform="translate(-7.19 -30.36)"/><path class="cls-6" d="M46.47,198.69c-.21-2.4-2-6.76.69-12.94s9.49-14.6,18.85-14.7,16.42,2.16,19.75,7.84,6,18.62,1.21,24.89c-.53-8.33-4.29-14-6.33-15.83-.67,1.13,1.56,2.5-9.58.25-2.25,1.37-7,2-12.15,2.06-2.94,1.47-5.05,1.91-7.1,7.11-.11,6.17.24,12.26-.61,11.64-.91-.79-.84-.68-.82-1.55s-1.74-7.19-3.76-8.62Z" transform="translate(-7.19 -30.36)"/><path class="cls-7" d="M237.94,232.1s-1-.09-1.29.37-2,2.43,2.14,10c7.89,6.67,8.77,6.86,8.77,6.86s9.16-2.11,13-6.32a51.3,51.3,0,0,0,6.91-10.47,9.32,9.32,0,0,0-2.33-2.1c.47.84,1.7.29-5.75,9.39C245.8,243,237.94,232.1,237.94,232.1Z" transform="translate(-7.19 -30.36)"/><path class="cls-8" d="M236.65,221.67c.38,2.53,1.22,7.78,1.3,10.65-.15.4-1,5.66,5,9.8,4.44,4.73,4.84,4.38,4.84,4.38s8.12-2,13.23-8.38,5.37-6.87,3.18-8.67C262.27,229.78,236.65,221.67,236.65,221.67Z" transform="translate(-7.19 -30.36)"/><path class="cls-9" d="M259.52,232.87c-3.53,2.72-10.92,10.4-11.58,10.55-1.62-2.17-5.69-11.39-6.5-12.09,3.86-.18,18.08.81,18.08.81Z" transform="translate(-7.19 -30.36)"/><path class="cls-10" d="M264.37,229.56l-.37-.5s5.29-4.79,6.18-14.93c3.16-1.4,4.12-1.18,5.51-6.54.81-6.47.29-8.75-.73-9.11-1.84,1.25-4.12,6.1-4.26,9.7-.81,1.47-1.1.59-1.1.59v-11.1s-2-5.73-5.59-7.5c-2.35-1-10.65-.88-10.65-.88s-3.38-3-10.58-2.06-8.6,12.13-8.6,17.27-.34,15.07,2.77,17.42c1.64,4.34,5.64,12.42,10.22,14.11s14.5-4.08,16.68-6.76Z" transform="translate(-7.19 -30.36)"/><path class="cls-11" d="M274.67,198.69c.21-2.4,2-6.76-.69-12.94s-9.49-14.6-18.85-14.7-16.42,2.16-19.75,7.84-6,18.62-1.21,24.89c.53-8.33,4.29-14,6.33-15.83.67,1.13-1.56,2.5,9.58.25,2.25,1.37,7,2,12.15,2.06,2.94,1.47,5.05,1.91,7.1,7.11.11,6.17-.24,12.26.61,11.64.91-.79.84-.68.82-1.55s1.74-7.19,3.76-8.62Z" transform="translate(-7.19 -30.36)"/><path class="cls-10" d="M197.78,286.75l1-7.9s6.17,4.8,22.44,0c-1.76,3-1.08,3.63-.88,4.51a7,7,0,0,0-.69,3.39Z" transform="translate(-7.19 -30.36)"/><path class="cls-12" d="M313.27,278.29s-4.65-26.48-6.71-27.36-29.89-8.13-32.39-10.19-6.65-8-6.95-8.64c-.59,1.8-5,9.77-10,12.64a48.48,48.48,0,0,1-9.55,4.12s-8.56-4.52-10-8.93-1.53-6.91-1.06-7.46c-2,2.65-1.77,5-7.24,6.91S207.1,245,200.86,249.73c-2.17,8.34-5.33,32.82-4.81,36.71l.07.3H314S313.53,279.79,313.27,278.29Z" transform="translate(-7.19 -30.36)"/><path class="cls-1" d="M243.37,287.12s3.92-24.92,0-44.43l4.39,3.82,6.47-2.61s-4,35.87-1.35,43.69" transform="translate(-7.19 -30.36)"/><circle class="cls-7" cx="234.25" cy="225.17" r="1.22"/><circle class="cls-7" cx="234.25" cy="236.93" r="1.22"/><circle class="cls-7" cx="233.76" cy="249.08" r="1.22"/><line class="cls-13" x1="249.41" y1="225.17" x2="251.62" y2="225.17"/><line class="cls-13" x1="249.41" y1="236.93" x2="251.62" y2="236.93"/><rect x="112.91" y="21.1" width="3.33" height="86.23"/><rect x="208.21" y="21.1" width="3.33" height="86.23"/><rect class="cls-1" x="116.24" y="21.1" width="4.59" height="4.59"/><rect class="cls-14" x="120.83" y="21.1" width="4.59" height="4.59"/><rect class="cls-1" x="125.42" y="21.1" width="4.59" height="4.59"/><rect class="cls-14" x="130.02" y="21.1" width="4.59" height="4.59"/><rect class="cls-1" x="134.67" y="21.1" width="4.59" height="4.59"/><rect class="cls-14" x="139.26" y="21.1" width="4.59" height="4.59"/><rect class="cls-1" x="143.85" y="21.1" width="4.59" height="4.59"/><rect class="cls-14" x="148.44" y="21.1" width="4.59" height="4.59"/><rect class="cls-1" x="153.04" y="21.1" width="4.59" height="4.59"/><rect class="cls-14" x="157.63" y="21.1" width="4.59" height="4.59"/><rect class="cls-1" x="162.22" y="21.1" width="4.59" height="4.59"/><rect class="cls-14" x="166.82" y="21.1" width="4.59" height="4.59"/><rect class="cls-1" x="171.46" y="21.1" width="4.59" height="4.59"/><rect class="cls-14" x="176.06" y="21.1" width="4.59" height="4.59"/><rect class="cls-1" x="180.65" y="21.1" width="4.59" height="4.59"/><rect class="cls-14" x="185.24" y="21.1" width="4.59" height="4.59"/><rect class="cls-1" x="189.84" y="21.1" width="4.59" height="4.59"/><rect class="cls-14" x="194.43" y="21.1" width="4.59" height="4.59"/><rect class="cls-1" x="199.02" y="21.1" width="4.59" height="4.59"/><rect class="cls-14" x="203.61" y="21.1" width="4.59" height="4.59"/><rect class="cls-1" x="210.8" y="56.05" width="4.59" height="4.59" transform="translate(419.01 86.34) rotate(-180)"/><rect class="cls-14" x="206.21" y="56.05" width="4.59" height="4.59" transform="translate(409.82 86.34) rotate(-180)"/><rect class="cls-1" x="201.62" y="56.05" width="4.59" height="4.59" transform="translate(400.64 86.34) rotate(-180)"/><rect class="cls-14" x="197.02" y="56.05" width="4.59" height="4.59" transform="translate(391.45 86.34) rotate(-180)"/><rect class="cls-1" x="192.37" y="56.05" width="4.59" height="4.59" transform="translate(382.15 86.34) rotate(-180)"/><rect class="cls-14" x="187.78" y="56.05" width="4.59" height="4.59" transform="translate(372.97 86.34) rotate(-180)"/><rect class="cls-1" x="183.19" y="56.05" width="4.59" height="4.59" transform="translate(363.78 86.34) rotate(-180)"/><rect class="cls-14" x="178.6" y="56.05" width="4.59" height="4.59" transform="translate(354.6 86.34) rotate(-180)"/><rect class="cls-1" x="174" y="56.05" width="4.59" height="4.59" transform="translate(345.41 86.34) rotate(-180)"/><rect class="cls-14" x="169.41" y="56.05" width="4.59" height="4.59" transform="translate(336.23 86.34) rotate(-180)"/><rect class="cls-1" x="164.82" y="56.05" width="4.59" height="4.59" transform="translate(327.04 86.34) rotate(-180)"/><rect class="cls-14" x="160.22" y="56.05" width="4.59" height="4.59" transform="translate(317.85 86.34) rotate(-180)"/><rect class="cls-1" x="155.58" y="56.05" width="4.59" height="4.59" transform="translate(308.56 86.34) rotate(-180)"/><rect class="cls-14" x="150.98" y="56.05" width="4.59" height="4.59" transform="translate(299.37 86.34) rotate(-180)"/><rect class="cls-1" x="146.39" y="56.05" width="4.59" height="4.59" transform="translate(290.18 86.34) rotate(-180)"/><rect class="cls-14" x="141.8" y="56.05" width="4.59" height="4.59" transform="translate(281 86.34) rotate(-180)"/><rect class="cls-1" x="137.2" y="56.05" width="4.59" height="4.59" transform="translate(271.81 86.34) rotate(-180)"/><rect class="cls-14" x="132.61" y="56.05" width="4.59" height="4.59" transform="translate(262.63 86.34) rotate(-180)"/><rect class="cls-1" x="128.02" y="56.05" width="4.59" height="4.59" transform="translate(253.44 86.34) rotate(-180)"/><rect class="cls-14" x="123.42" y="56.05" width="4.59" height="4.59" transform="translate(244.26 86.34) rotate(-180)"/><rect class="cls-1" x="116.24" y="30.25" width="4.59" height="4.59"/><rect class="cls-14" x="120.83" y="30.25" width="4.59" height="4.59"/><rect class="cls-1" x="125.42" y="30.25" width="4.59" height="4.59"/><rect class="cls-14" x="130.02" y="30.25" width="4.59" height="4.59"/><rect class="cls-1" x="134.67" y="30.25" width="4.59" height="4.59"/><rect class="cls-14" x="139.26" y="30.25" width="4.59" height="4.59"/><rect class="cls-1" x="143.85" y="30.25" width="4.59" height="4.59"/><rect class="cls-14" x="148.44" y="30.25" width="4.59" height="4.59"/><rect class="cls-1" x="153.04" y="30.25" width="4.59" height="4.59"/><rect class="cls-14" x="157.63" y="30.25" width="4.59" height="4.59"/><rect class="cls-1" x="162.22" y="30.25" width="4.59" height="4.59"/><rect class="cls-14" x="166.82" y="30.25" width="4.59" height="4.59"/><rect class="cls-1" x="171.46" y="30.25" width="4.59" height="4.59"/><rect class="cls-14" x="176.06" y="30.25" width="4.59" height="4.59"/><rect class="cls-1" x="180.65" y="30.25" width="4.59" height="4.59"/><rect class="cls-14" x="185.24" y="30.25" width="4.59" height="4.59"/><rect class="cls-1" x="189.84" y="30.25" width="4.59" height="4.59"/><rect class="cls-14" x="194.43" y="30.25" width="4.59" height="4.59"/><rect class="cls-1" x="199.02" y="30.25" width="4.59" height="4.59"/><rect class="cls-14" x="203.61" y="30.25" width="4.59" height="4.59"/><rect class="cls-1" x="210.8" y="65.2" width="4.59" height="4.59" transform="translate(419.01 104.64) rotate(-180)"/><rect class="cls-14" x="206.21" y="65.2" width="4.59" height="4.59" transform="translate(409.82 104.64) rotate(-180)"/><rect class="cls-1" x="201.62" y="65.2" width="4.59" height="4.59" transform="translate(400.64 104.64) rotate(-180)"/><rect class="cls-14" x="197.02" y="65.2" width="4.59" height="4.59" transform="translate(391.45 104.64) rotate(-180)"/><rect class="cls-1" x="192.37" y="65.2" width="4.59" height="4.59" transform="translate(382.15 104.64) rotate(-180)"/><rect class="cls-14" x="187.78" y="65.2" width="4.59" height="4.59" transform="translate(372.97 104.64) rotate(-180)"/><rect class="cls-1" x="183.19" y="65.2" width="4.59" height="4.59" transform="translate(363.78 104.64) rotate(-180)"/><rect class="cls-14" x="178.6" y="65.2" width="4.59" height="4.59" transform="translate(354.6 104.64) rotate(-180)"/><rect class="cls-1" x="174" y="65.2" width="4.59" height="4.59" transform="translate(345.41 104.64) rotate(-180)"/><rect class="cls-14" x="169.41" y="65.2" width="4.59" height="4.59" transform="translate(336.23 104.64) rotate(-180)"/><rect class="cls-1" x="164.82" y="65.2" width="4.59" height="4.59" transform="translate(327.04 104.64) rotate(-180)"/><rect class="cls-14" x="160.22" y="65.2" width="4.59" height="4.59" transform="translate(317.85 104.64) rotate(-180)"/><rect class="cls-1" x="155.58" y="65.2" width="4.59" height="4.59" transform="translate(308.56 104.64) rotate(-180)"/><rect class="cls-14" x="150.98" y="65.2" width="4.59" height="4.59" transform="translate(299.37 104.64) rotate(-180)"/><rect class="cls-1" x="146.39" y="65.2" width="4.59" height="4.59" transform="translate(290.18 104.64) rotate(-180)"/><rect class="cls-14" x="141.8" y="65.2" width="4.59" height="4.59" transform="translate(281 104.64) rotate(-180)"/><rect class="cls-1" x="137.2" y="65.2" width="4.59" height="4.59" transform="translate(271.81 104.64) rotate(-180)"/><rect class="cls-14" x="132.61" y="65.2" width="4.59" height="4.59" transform="translate(262.63 104.64) rotate(-180)"/><rect class="cls-1" x="128.02" y="65.2" width="4.59" height="4.59" transform="translate(253.44 104.64) rotate(-180)"/><rect class="cls-14" x="123.42" y="65.2" width="4.59" height="4.59" transform="translate(244.26 104.64) rotate(-180)"/><rect class="cls-1" x="116.24" y="39.4" width="4.59" height="4.59"/><rect class="cls-14" x="120.83" y="39.4" width="4.59" height="4.59"/><rect class="cls-1" x="125.42" y="39.4" width="4.59" height="4.59"/><rect class="cls-14" x="130.02" y="39.4" width="4.59" height="4.59"/><rect class="cls-1" x="134.67" y="39.4" width="4.59" height="4.59"/><rect class="cls-14" x="139.26" y="39.4" width="4.59" height="4.59"/><rect class="cls-1" x="143.85" y="39.4" width="4.59" height="4.59"/><rect class="cls-14" x="148.44" y="39.4" width="4.59" height="4.59"/><rect class="cls-1" x="153.04" y="39.4" width="4.59" height="4.59"/><rect class="cls-14" x="157.63" y="39.4" width="4.59" height="4.59"/><rect class="cls-1" x="162.22" y="39.4" width="4.59" height="4.59"/><rect class="cls-14" x="166.82" y="39.4" width="4.59" height="4.59"/><rect class="cls-1" x="171.46" y="39.4" width="4.59" height="4.59"/><rect class="cls-14" x="176.06" y="39.4" width="4.59" height="4.59"/><rect class="cls-1" x="180.65" y="39.4" width="4.59" height="4.59"/><rect class="cls-14" x="185.24" y="39.4" width="4.59" height="4.59"/><rect class="cls-1" x="189.84" y="39.4" width="4.59" height="4.59"/><rect class="cls-14" x="194.43" y="39.4" width="4.59" height="4.59"/><rect class="cls-1" x="199.02" y="39.4" width="4.59" height="4.59"/><rect class="cls-14" x="203.61" y="39.4" width="4.59" height="4.59"/><path class="cls-15" d="M105.48,31.49H236.84s51.84-1.24,53.78,60.17c-1.42,62.84-55,58.93-67.81,60.35-15.27-.36-117.33,0-117.33,0s-55.54,0-54.84-62.48S105.48,31.49,105.48,31.49Z" transform="translate(-7.19 -30.36)"/><circle class="cls-16" cx="120.51" cy="147.24" r="8.3"/><circle class="cls-16" cx="111.22" cy="171.34" r="6.36"/><circle class="cls-16" cx="98.52" cy="189.64" r="3.84"/><circle class="cls-16" cx="195.49" cy="146.05" r="9.5"/><circle class="cls-16" cx="199" cy="170.87" r="6.84"/><circle class="cls-16" cx="204.99" cy="193.49" r="4.42"/></svg>