<svg id="Capa_1" data-name="Capa 1" xmlns="http://www.w3.org/2000/svg" viewBox="0 0 317.82 93.9"><defs><style>.cls-1{fill:#d85700;stroke:#033a99;stroke-miterlimit:10;stroke-width:4.82px;}.cls-2{fill:#033a99;}.cls-3{fill:#022a63;}</style></defs><title>logoGrandbuck</title><rect class="cls-1" x="2.41" y="2.41" width="313" height="89.09"/><path class="cls-2" d="M53,115.94a43.58,43.58,0,0,1-13,2.19c-7.1,0-12.24-1.79-15.82-5.26s-5.54-8.43-5.49-14.15C18.71,85.8,28.13,78.4,40.89,78.4a26.76,26.76,0,0,1,10.8,1.91l-1.85,7a21.56,21.56,0,0,0-9.07-1.67c-7.33,0-12.88,4.16-12.88,12.59,0,8,5,12.77,12.24,12.77a18.65,18.65,0,0,0,5.24-.55l-.05-3.93-9.29,0,0-7.5L53,99Z" transform="translate(-1.59 -52.32)"/><path class="cls-2" d="M59.74,98.79c0-4.16-.12-6.87-.23-9.3h7.57l.29,5.2h.23a8.3,8.3,0,0,1,7.62-5.83,9.07,9.07,0,0,1,1.85.12v8.26A12.6,12.6,0,0,0,74.7,97c-3.24,0-5.43,1.73-6,4.45a10.2,10.2,0,0,0-.17,2v14.32H59.74Z" transform="translate(-1.59 -52.32)"/><path class="cls-2" d="M97.12,117.73l-.52-2.83h-.17a10.17,10.17,0,0,1-8.09,3.47c-5.72,0-9.13-4.16-9.13-8.66,0-7.34,6.58-10.86,16.58-10.8v-.4c0-1.5-.81-3.64-5.14-3.64A15.89,15.89,0,0,0,82.86,97l-1.62-5.66a23.31,23.31,0,0,1,11-2.48c9.41,0,12.42,5.54,12.42,12.18v9.82a43.69,43.69,0,0,0,.4,6.87Zm-1-13.34c-4.62-.06-8.2,1-8.2,4.45a3.15,3.15,0,0,0,3.46,3.35A4.8,4.8,0,0,0,95.91,109a6.29,6.29,0,0,0,.17-1.5Z" transform="translate(-1.59 -52.32)"/><path class="cls-2" d="M111.57,98.5c0-3.52-.12-6.53-.23-9H119l.4,3.87h.17a10.33,10.33,0,0,1,8.72-4.51c5.77,0,10.11,3.81,10.11,12.13v16.75h-8.78V102.08c0-3.64-1.27-6.12-4.45-6.12a4.69,4.69,0,0,0-4.45,3.29,6,6,0,0,0-.35,2.19v16.29h-8.78Z" transform="translate(-1.59 -52.32)"/><path class="cls-2" d="M172.81,76.73V109.3c0,3.18.12,6.52.23,8.43h-7.8l-.4-4.16h-.12a9.86,9.86,0,0,1-8.84,4.79c-6.7,0-12.07-5.72-12.07-14.5-.06-9.53,5.89-15,12.65-15,3.47,0,6.18,1.21,7.45,3.18H164V76.73ZM164,101.45a14,14,0,0,0-.12-1.56,5.27,5.27,0,0,0-5.14-4.33c-4,0-6.06,3.58-6.06,8,0,4.79,2.37,7.8,6,7.8a5.14,5.14,0,0,0,5.08-4.22,7.44,7.44,0,0,0,.23-2Z" transform="translate(-1.59 -52.32)"/><path class="cls-2" d="M179.65,117.73c.12-1.85.23-5.26.23-8.43V76.73h8.78V92.84h.12c1.67-2.43,4.62-4,8.55-4,6.76,0,11.72,5.6,11.67,14.27,0,10.16-6.47,15.25-12.94,15.25a9.38,9.38,0,0,1-8.49-4.56h-.12l-.35,3.93Zm9-12a6.32,6.32,0,0,0,.17,1.56,5.31,5.31,0,0,0,5.14,4.16c3.75,0,6.06-2.89,6.06-8,0-4.39-2-7.85-6.06-7.85a5.44,5.44,0,0,0-5.14,4.33,7.18,7.18,0,0,0-.17,1.62Z" transform="translate(-1.59 -52.32)"/><path class="cls-2" d="M241.06,108.67c0,3.7.12,6.7.23,9.07h-7.62l-.4-4h-.17a10.08,10.08,0,0,1-8.84,4.62c-5.72,0-9.93-3.58-9.93-12.3V89.49h8.84v15.19c0,4.1,1.33,6.58,4.39,6.58a4.72,4.72,0,0,0,4.39-3.06,4.91,4.91,0,0,0,.29-1.9V89.49h8.84Z" transform="translate(-1.59 -52.32)"/><path class="cls-2" d="M269.32,117a21.4,21.4,0,0,1-7.86,1.27c-9.13,0-15-5.54-15-14.44,0-8.26,5.66-15,16.17-15a20.4,20.4,0,0,1,6.7,1.1L268,96.48a12,12,0,0,0-4.91-.87c-4.62,0-7.62,3.29-7.57,7.91,0,5.2,3.47,7.91,7.74,7.91a13.55,13.55,0,0,0,5-.87Z" transform="translate(-1.59 -52.32)"/><path class="cls-2" d="M283,101.39h.12c.63-1.15,1.33-2.31,2-3.41l5.72-8.49h10.57l-10.11,11.43,11.55,16.81H292l-6.81-11.61L283,108.9v8.84h-8.78v-41H283Z" transform="translate(-1.59 -52.32)"/><polygon class="cls-3" points="34.48 46.71 39.73 45.24 54.48 45.24 54.48 61.5 51.38 63.62 51.38 46.73 34.48 46.71"/></svg>