<svg id="Capa_1" data-name="Capa 1" xmlns="http://www.w3.org/2000/svg" viewBox="0 0 181.15 196.24"><defs><style>.cls-1{fill:#d85700;stroke:#033a99;stroke-miterlimit:10;stroke-width:10.06px;}.cls-2{fill:#033a99;}.cls-3{fill:#022a63;}</style></defs><title>miniSquareG</title><rect class="cls-1" x="5.03" y="5.03" width="171.08" height="186.18"/><path class="cls-2" d="M130,134.93a91.08,91.08,0,0,1-27.16,4.58c-14.84,0-25.59-3.74-33.07-11-7.48-7-11.59-17.62-11.46-29.57.12-27,19.79-42.49,46.47-42.49,10.5,0,18.59,2,22.57,4l-3.86,14.72c-4.46-1.93-10-3.5-18.95-3.5-15.33,0-26.91,8.69-26.91,26.31,0,16.78,10.5,26.68,25.59,26.68,4.23,0,9.51-.43,11-1.15l-.11-8.21-19.41,0,0-15.68,35.32,0Z" transform="translate(-9.22 -1.97)"/><polygon class="cls-3" points="85.47 97.62 96.44 94.56 127.26 94.56 127.26 128.52 120.79 132.96 120.79 97.65 85.47 97.62"/></svg>