<svg id="Capa_1" data-name="Capa 1" xmlns="http://www.w3.org/2000/svg" viewBox="0 0 179.2 194.13"><defs><style>.cls-1{fill:#d85700;stroke:#033a99;stroke-miterlimit:10;stroke-width:9.96px;}.cls-2{fill:#033a99;}.cls-3{fill:#022a63;}</style></defs><title>miniSquareCirG</title><rect class="cls-1" x="4.98" y="4.98" width="169.25" height="184.18" rx="1" ry="1"/><path class="cls-2" d="M130.43,133.1a90.1,90.1,0,0,1-26.87,4.54c-14.69,0-25.31-3.7-32.72-10.86-7.4-6.93-11.46-17.43-11.34-29.25.12-26.75,19.58-42,46-42,10.39,0,18.39,2,22.33,3.94L124,74c-4.41-1.91-9.91-3.46-18.74-3.46-15.16,0-26.62,8.59-26.62,26C78.61,113.16,89,123,103.92,123c4.18,0,9.41-.43,10.84-1.14l-.11-8.12-19.2,0,0-15.51,34.94,0Z" transform="translate(-10.4 -3.02)"/><polygon class="cls-3" points="85.09 95.12 95.95 92.09 126.44 92.09 126.44 125.69 120.03 130.08 120.03 95.15 85.09 95.12"/></svg>