<svg id="Capa_1" data-name="Capa 1" xmlns="http://www.w3.org/2000/svg" viewBox="0 0 194.13 194.13"><defs><style>.cls-1{fill:#d85700;stroke:#033a99;stroke-miterlimit:10;stroke-width:9.96px;}.cls-2{fill:#033a99;}.cls-3{fill:#022a63;}</style></defs><title>shortcut-icon</title><circle class="cls-1" cx="97.07" cy="97.07" r="92.09"/><path class="cls-2" d="M144.6,155.33a135,135,0,0,1-40.27,6.8c-22,0-37.94-5.55-49-16.28-11.1-10.38-17.18-26.13-17-43.85.17-40.09,29.35-63,68.9-63,15.57,0,27.56,3,33.46,5.91l-5.73,21.83c-6.62-2.86-14.85-5.19-28.09-5.19-22.73,0-39.91,12.88-39.91,39,0,24.88,15.57,39.56,37.94,39.56,6.27,0,14.1-.64,16.25-1.71L121,126.24l-28.78-.06.05-23.25,52.37.05Z" transform="translate(-3.18 -3.02)"/><polygon class="cls-3" points="89.05 99.9 105.32 95.37 151.02 95.37 151.02 145.73 141.42 152.31 141.42 99.95 89.05 99.9"/></svg>