<svg id="Capa_1" data-name="Capa 1" xmlns="http://www.w3.org/2000/svg" viewBox="0 0 18.73 19.9"><defs><style>.cls-1{fill:#a88800;}.cls-2{fill:#917500;}</style></defs><title>darkmode-gpremium</title><path class="cls-1" d="M17.81,18.85a21.83,21.83,0,0,1-6.51,1.1c-3.56,0-6.13-.9-7.92-2.63A9.43,9.43,0,0,1,.63,10.23C.66,3.75,5.38.05,11.77.05a13.4,13.4,0,0,1,5.41,1l-.93,3.53a10.8,10.8,0,0,0-4.54-.84C8,3.7,5.26,5.78,5.26,10c0,4,2.52,6.39,6.13,6.39A9.34,9.34,0,0,0,14,16.12l0-2H9.34V10.38h8.46Z" transform="translate(-0.63 -0.05)"/><polygon class="cls-2" points="8.72 10.33 11.35 9.6 18.73 9.6 18.73 17.74 17.18 18.8 17.18 10.34 8.72 10.33"/></svg>